<svg id="Layer_1" data-name="Layer 1" xmlns="http://www.w3.org/2000/svg" viewBox="0 0 128 128"><defs><style>.cls-1{fill:#2d3e50;}.cls-2{fill:#2e79bd;}</style></defs><title>b</title><path class="cls-1" d="M91.69017,117.11l.14618-.0788a59.61231,59.61231,0,0,0,25.95494-26.687l.0788-.16217c.61213-1.25738,1.18086-2.53074,1.68564-3.77555L68.50694,74.55569l8.21463,47.971A59.92078,59.92078,0,0,0,91.69017,117.11Z" id="id_101" style="fill: rgb(255, 255, 255);"></path><path class="cls-1" d="M56.05138,67.95132c-.0257-.20557-.04054-.3369-.04739-.46595-.004-.08337-.00457-.15874-.00286-.33233l.00514-.23069c.00514-.1005.01256-.19871.02512-.30606.00742-.08108.02512-.19186.05253-.34718l.13362-.62926L74.0024,4.94433a60.82381,60.82381,0,0,0-10.12981-.8531,59.9081,59.9081,0,1,0,1.74274,119.79448Z" id="id_102" style="fill: rgb(255, 255, 255);"></path><path class="cls-2" d="M123.87758,63.2531l-.00981-.29154a59.32273,59.32273,0,0,0-.8305-8.87591l-.07106-.40914q-.17638-.98117-.38218-1.95255c-.38463-1.82026-.8452-3.61112-1.38663-5.35054-.147-.48507-.30378-.96769-.46548-1.44542l-.16414-.44343a59.59553,59.59553,0,0,0-2.45233-6.04875c-.43118-.9187-.8844-1.82516-1.35968-2.712l-.23274-.45567q-.44464-.80846-.9138-1.60712a60.23456,60.23456,0,0,0-4.82136-7.03606l-.2058-.25723-.22293-.25723q-1.54343-1.8999-3.23384-3.66012A59.51425,59.51425,0,0,0,84.8069,7.80987L75.76439,38.68815l-2.09464,7.1512L70.3771,57.07694l-1.76637,6.03651,1.2666.294,12.71732,2.94965,8.09685,1.87907,32.064,7.43538A59.89129,59.89129,0,0,0,123.87758,63.2531ZM89.62581,18.4056a52.408,52.408,0,0,1,5.90666,3.87081,50.15907,50.15907,0,0,1,4.51267,3.84141L85.09842,33.85454Zm-6.622,22.60259,20.87543-10.80642c.19844.23273.392.46792.58552.70555l.26948.31359a52.72,52.72,0,0,1,4.1158,5.941L79.71114,52.24579ZM80.28932,58.01525l31.07427-16.0859a53.17726,53.17726,0,0,1,2.02606,5.0345l.17393.47773c.27195.8158.52673,1.64876.75947,2.48907L93.00174,60.96981Zm35.94218,8.34919-15.13535-3.51559,14.44693-7.47948a52.80972,52.80972,0,0,1,.72272,7.71957l.01225.35033C116.28786,64.41189,116.278,65.39429,116.2315,66.36445Z" id="id_103" style="fill: rgb(255, 255, 255);"></path></svg>