<svg version="1.1" id="Icons" xmlns="http://www.w3.org/2000/svg" xmlns:xlink="http://www.w3.org/1999/xlink" x="0px" y="0px" viewBox="0 0 32 32" style="enable-background:new 0 0 32 32;" xml:space="preserve">
<path d="M21.8,27.4l-6-9c0,0,0,0-0.1,0C15.6,18.2,15.3,18,15,18s-0.6,0.2-0.8,0.4c0,0,0,0-0.1,0l-6,9c-0.3,0.5-0.2,1.1,0.3,1.4
	c0.5,0.3,1.1,0.2,1.4-0.3l4.2-6.3V30c0,0.6,0.4,1,1,1s1-0.4,1-1v-7.7l4.2,6.3c0.2,0.3,0.5,0.4,0.8,0.4c0.2,0,0.4-0.1,0.6-0.2
	C22,28.5,22.1,27.9,21.8,27.4z" id="id_101" style="fill: rgb(255, 255, 255);"></path>
<g>
	<path d="M21.4,14.9c-0.1,0-0.3,0-0.4-0.1c-0.2-0.1-0.4-0.3-0.5-0.5l-2.9-7.2c-0.2-0.5,0-1.1,0.6-1.3l9-3.6c0.5-0.2,1.1,0,1.3,0.6
		l2.9,7.2c0.2,0.5,0,1.1-0.6,1.3l-9,3.6C21.6,14.8,21.5,14.9,21.4,14.9z" id="id_102" style="fill: rgb(255, 255, 255);"></path>
</g>
<g>
	<path d="M15,20c-2.2,0-4-1.8-4-4s1.8-4,4-4s4,1.8,4,4S17.2,20,15,20z" id="id_103" style="fill: rgb(255, 255, 255);"></path>
</g>
<path d="M9,16c0-3.3,2.7-6,6-6c0.6,0,1.1,0.1,1.7,0.2l-1-2.4l-9.1,3.6C6.3,11.6,6.2,11.8,6,12C6,12.2,6,12.5,6,12.7l-5.1,2
	c-0.5,0.2-0.8,0.8-0.6,1.3l1.4,3.6c0.1,0.2,0.3,0.4,0.5,0.5c0.1,0.1,0.3,0.1,0.4,0.1c0.1,0,0.3,0,0.4-0.1l5.1-2
	c0.2,0.2,0.5,0.4,0.8,0.4c0.1,0,0.2,0,0.4-0.1l0.1,0C9.2,17.6,9,16.8,9,16z" id="id_104" style="fill: rgb(255, 255, 255);"></path>
</svg>