<svg width="20" height="25" viewBox="0 0 20 25" fill="none" xmlns="http://www.w3.org/2000/svg">
<g clip-path="url(#clip0_1904_726)">
<path d="M2.7334 3.93333C2.7334 5 3.60007 5.86667 4.66673 5.86667C5.7334 5.86667 6.60006 5 6.60006 3.93333C6.60006 2.86667 5.7334 2 4.66673 2C3.60007 2 2.7334 2.86667 2.7334 3.93333Z" fill="black"/>
<path d="M9.99998 5.86667C11.0667 5.86667 11.9333 5 11.9333 3.93333C11.9333 2.86667 11.0667 2 9.99998 2C8.93332 2 8.06665 2.86667 8.06665 3.93333C8.06665 5 8.93332 5.86667 9.99998 5.86667Z" fill="black"/>
<path d="M7.3335 8.33307V9.33307H12.6668V8.33307C12.6668 7.46641 12.2668 6.59974 11.4002 6.06641C11.0002 6.33307 10.4668 6.53307 10.0002 6.53307C9.46683 6.53307 9.00016 6.39974 8.60016 6.13307C7.80016 6.59974 7.3335 7.39974 7.3335 8.33307Z" fill="black"/>
<path d="M6.66667 8.33307C6.66667 7.86641 6.8 7.39974 6.93333 6.99974C6.73333 6.59974 6.46667 6.33307 6.06667 6.06641C5.66667 6.39974 5.2 6.53307 4.66667 6.53307C4.13333 6.53307 3.66667 6.39974 3.26667 6.13307C2.46667 6.59974 2 7.39974 2 8.33307V9.33307H6.66667V8.33307Z" fill="black"/>
<path d="M18 9.33307V8.33307C18 7.46641 17.6 6.59974 16.7333 6.06641C15.8667 6.66641 14.7333 6.66641 13.8667 6.06641C13.5333 6.26641 13.2 6.59974 13 6.99974C13.2 7.39974 13.2667 7.86641 13.2667 8.33307V9.33307H18Z" fill="black"/>
<path d="M13.4001 3.93333C13.4001 5 14.2668 5.86667 15.3335 5.86667C16.4001 5.86667 17.2668 5 17.2668 3.93333C17.2668 2.86667 16.4001 2 15.3335 2C14.2668 2 13.4001 2.86667 13.4001 3.93333Z" fill="black"/>
<path d="M16.1334 17.9993C16.6667 17.9993 17.1334 17.5327 17.1334 16.9993V12.666H2.8667V16.9993C2.8667 17.5327 3.33337 17.9993 3.8667 17.9993H16.1334Z" fill="black"/>
<path d="M17.3334 10H2.66675C2.13341 10 1.66675 10.4667 1.66675 11C1.66675 11.5333 2.13341 12 2.66675 12H17.3334C17.8667 12 18.3334 11.5333 18.3334 11C18.3334 10.4667 17.8667 10 17.3334 10Z" fill="black"/>
</g>
<defs>
<clipPath id="clip0_1904_726">
<rect width="20" height="25" fill="white"/>
</clipPath>
</defs>
</svg>
