<svg version="1.0" id="Layer_1" xmlns="http://www.w3.org/2000/svg" xmlns:xlink="http://www.w3.org/1999/xlink" x="0px" y="0px" width="100px" height="100px" viewBox="0 0 100 100" enable-background="new 0 0 100 100" xml:space="preserve">
<path d="M73.333,39.996v-6.66C73.333,25.975,67.363,20,60,20v6.67c3.679,0,6.667,2.986,6.667,6.666v6.66
	c0,4.006,1.803,7.559,4.6,10.004c-2.797,2.444-4.6,5.992-4.6,10v6.666c0,3.682-2.988,6.667-6.67,6.667V80
	c7.359,0,13.336-5.967,13.336-13.334V60c0-3.682,2.988-6.667,6.667-6.667v-6.67C76.315,46.663,73.333,43.677,73.333,39.996z" id="id_101" style="fill: rgb(255, 255, 255);"></path>
<path d="M33.337,40v-6.667c0-3.682,2.988-6.667,6.67-6.667V20c-7.363,0-13.337,5.967-13.337,13.333L26.667,40
	c0,3.682-2.985,6.666-6.667,6.666v6.667l0,0l0.003,0.003c3.682,0,6.667,2.985,6.667,6.667v6.66C26.67,74.023,32.637,80,40.003,80
	v-6.67c-3.682,0-6.666-2.985-6.666-6.667v-6.66c0-4.007-1.804-7.559-4.6-10.003C31.533,47.555,33.337,44.005,33.337,40z" id="id_102" style="fill: rgb(255, 255, 255);"></path>
</svg>