<?xml version="1.0" encoding="UTF-8" standalone="no"?> <svg xmlns="http://www.w3.org/2000/svg" viewBox="0 0 48 48"><title>Exam Passed</title><g id="_11_-_20" data-name="11 - 20"><g id="Exam_Passed" data-name="Exam Passed"><path fill="white" d="M40.414,11.414,31.586,2.586a1.988,1.988,0,0,0-.586-.4V9a3,3,0,0,0,3,3h6.814A1.988,1.988,0,0,0,40.414,11.414Z"/><polygon points="16 10.236 15.451 11.333 16.549 11.333 16 10.236"/><path fill="white" d="M34,14a5.006,5.006,0,0,1-5-5V2H12A5,5,0,0,0,7,7V41a5,5,0,0,0,5,5H36a5,5,0,0,0,5-5V14ZM20.5,9.5H21V9a1,1,0,0,1,2,0v.5h.5a1,1,0,0,1,0,2H23V12a1,1,0,0,1-2,0v-.5h-.5a1,1,0,0,1,0-2Zm-7.947,5.4a1,1,0,0,1-.448-1.342l3-6a1.042,1.042,0,0,1,1.79,0l3,6a1,1,0,0,1-1.79.894l-.556-1.114h-3.1L13.9,14.447A1,1,0,0,1,12.553,14.9ZM29,40H14a1,1,0,0,1,0-2H29a1,1,0,0,1,0,2Zm5-5H14a1,1,0,0,1,0-2H34a1,1,0,0,1,0,2Zm0-5H14a1,1,0,0,1,0-2H34a1,1,0,0,1,0,2Zm0-5H14a1,1,0,0,1,0-2H34a1,1,0,0,1,0,2Zm0-5H17a1,1,0,0,1,0-2H34a1,1,0,0,1,0,2Z"/></g></g></svg>