<svg width="20" height="16" viewBox="0 0 20 16" fill="none" xmlns="http://www.w3.org/2000/svg">
<path d="M11.6923 1.84615C11.6923 2.86577 10.8658 3.69231 9.84615 3.69231C8.82654 3.69231 8 2.86577 8 1.84615C8 0.826535 8.82654 0 9.84615 0C10.8658 0 11.6923 0.826535 11.6923 1.84615Z" fill="black"/>
<path d="M4.92326 3.69381C4.92326 4.71343 4.09673 5.53996 3.07711 5.53996C2.05749 5.53996 1.23096 4.71343 1.23096 3.69381C1.23096 2.67419 2.05749 1.84766 3.07711 1.84766C4.09673 1.84766 4.92326 2.67419 4.92326 3.69381Z" fill="black"/>
<path d="M18.4614 3.69381C18.4614 4.71343 17.6348 5.53996 16.6152 5.53996C15.5956 5.53996 14.769 4.71343 14.769 3.69381C14.769 2.67419 15.5956 1.84766 16.6152 1.84766C17.6348 1.84766 18.4614 2.67419 18.4614 3.69381Z" fill="black"/>
<path d="M16.6154 12.9246C16.6154 14.6239 13.5847 16.0015 9.84614 16.0015C6.10755 16.0015 3.0769 14.6239 3.0769 12.9246C3.0769 11.2253 6.10755 9.84766 9.84614 9.84766C13.5847 9.84766 16.6154 11.2253 16.6154 12.9246Z" fill="black"/>
<path d="M6.03077 9.10799C5.72308 7.75415 4.49231 6.76953 3.07692 6.76953C1.35385 6.76953 0 8.12338 0 9.84645V12.9234H1.84615C1.84615 11.3849 3.26154 9.84645 6.03077 9.10799Z" fill="black"/>
<path d="M9.84597 8.61418C11.0152 8.61418 11.9998 8.73726 12.9229 8.92188V7.9988C12.9229 6.27572 11.569 4.92188 9.84597 4.92188C8.12289 4.92188 6.76904 6.27572 6.76904 7.9988V8.92188C7.69212 8.73726 8.67674 8.61418 9.84597 8.61418Z" fill="black"/>
<path d="M16.6155 6.76953C15.2001 6.76953 13.9693 7.75415 13.6616 9.10799C16.4309 9.84645 17.8462 11.3849 17.8462 12.9234H19.6924V9.84645C19.6924 8.12338 18.3385 6.76953 16.6155 6.76953Z" fill="black"/>
</svg>
