<!DOCTYPE svg PUBLIC "-//W3C//DTD SVG 1.1//EN" "http://www.w3.org/Graphics/SVG/1.1/DTD/svg11.dtd">

<!-- Uploaded to: SVG Repo, www.svgrepo.com, Transformed by: SVG Repo Mixer Tools -->
<svg height="800px" width="800px" version="1.1" id="_x32_" xmlns="http://www.w3.org/2000/svg" xmlns:xlink="http://www.w3.org/1999/xlink" viewBox="0 0 512 512" xml:space="preserve" fill="#ffffff">

<g id="SVGRepo_bgCarrier" stroke-width="0"/>

<g id="SVGRepo_tracerCarrier" stroke-linecap="round" stroke-linejoin="round"/>

<g id="SVGRepo_iconCarrier"> <style type="text/css"> .st0{fill:#ffffff;} </style> <g> <path class="st0" d="M383.301,168.546c-6.107,8.825-12.711,17.27-19.676,25.413c-25.851,30.156-57.049,55.51-92.144,74.679 c-0.058,2.22-0.058,4.442-0.058,6.604c0,34.227,5.98,68.202,17.455,100.219c5.98-2.591,11.834-5.367,17.698-8.27 c76.344-38.046,139.189-97.131,181.939-171.012c3.75-6.535,7.335-13.139,10.724-19.86c-5.367-16.461-12.584-32.688-21.585-48.292 c-13.081-22.626-29.046-42.487-47.172-59.328c-8.64,31.082-21.722,60.322-38.552,86.961 C389.155,160.043,386.32,164.358,383.301,168.546z"/> <path class="st0" d="M358.19,148.385h0.068c2.289-3.273,4.442-6.536,6.536-9.867c17.63-27.877,30.78-58.9,38.231-92.076 c-6.78-4.752-13.744-9.194-20.893-13.198C343.638,11.532,299.983,0,255.762,0.059c-43.422,0-87.332,10.986-127.725,34.286 c-11.532,6.662-22.266,14.064-32.318,22.15c86.221,2.834,169.413,29.356,241.443,77.085 C344.32,138.332,351.353,143.261,358.19,148.385z"/> <path class="st0" d="M110.952,193.404c10.676,0.926,21.283,2.465,31.822,4.5c39.283,7.587,77.095,22.325,111.323,43.666 c32.191-17.269,60.867-40.334,84.488-67.714c-6.224-4.686-12.643-9.185-19.179-13.51c-71.056-47.124-153.692-72.04-239.037-72.04 c-6.048,0-12.155,0.137-18.195,0.439c-11.045,12.828-20.718,26.581-28.929,41.133c-12.458,22.14-21.585,45.955-27.069,70.618 c24.546-5.796,49.452-8.572,74.192-8.572C90.605,191.924,100.773,192.42,110.952,193.404z"/> <path class="st0" d="M104.601,246.625c0.429-7.149,1.052-14.309,1.782-21.458c-8.63-0.809-17.328-1.179-26.016-1.179 c-26.523,0-53.29,3.585-79.433,10.92C0.311,242.009,0,249.089,0,256.249c0.059,43.422,11.045,87.332,34.354,127.725 c23.748,41.074,57.05,73.013,95.534,94.783c8.873,5.065,18.068,9.506,27.496,13.383c-35.328-66.974-53.708-141.04-53.708-216.528 C103.676,265.931,103.988,256.249,104.601,246.625z"/> <path class="st0" d="M271.482,416.964c-4.685-9.682-8.814-19.549-12.399-29.601c-13.003-35.835-19.724-73.764-19.724-112.121 c0-1.666,0-3.331,0.059-4.997c-31.024-19.801-65.435-33.487-101.202-40.51c-0.681,6.224-1.237,12.506-1.607,18.867 c-0.556,9-0.867,18.01-0.867,27.01c0,75.799,19.861,149.924,57.975,216.041c2.834,4.928,5.795,9.799,8.873,14.61h0.069 c17.58,3.769,35.523,5.678,53.601,5.678c24.477,0,49.022-3.516,73.071-10.733c-18.555-19.549-34.412-41.075-47.416-64.082 C278.203,430.532,274.686,423.811,271.482,416.964z"/> <path class="st0" d="M509.848,222.878c-45.576,74.387-110.7,134.086-188.962,172.989c-6.477,3.214-12.956,6.292-19.549,9.136 c2.649,5.542,5.484,10.978,8.503,16.335c13.939,24.672,31.452,47.425,52.423,67.53c7.344-3.39,14.62-7.082,21.712-11.212 c41.133-23.756,73.013-57.049,94.793-95.533C500.477,343.639,512,299.973,512,255.752 C511.941,244.774,511.27,233.807,509.848,222.878z"/> </g> </g>

</svg>