<svg width="20" height="20" viewBox="0 0 20 20" fill="none" xmlns="http://www.w3.org/2000/svg">
<path d="M17.1875 15C18.1875 13.5625 18.75 11.875 18.75 10C18.75 8.3125 18.25 6.75 17.4375 5.4375C17.4375 5.375 17.375 5.375 17.375 5.3125C15.8125 2.875 13.125 1.25 10 1.25C6.875 1.25 4.125 2.875 2.625 5.375C2.625 5.4375 2.5625 5.4375 2.5625 5.5C1.75 6.8125 1.3125 8.375 1.3125 10.0625C1.3125 11.9375 1.875 13.625 2.875 15.0625L2.9375 15.125C4.4375 17.3125 7.0625 18.75 10 18.75C12.9375 18.75 15.5 17.3125 17.125 15.125C17.125 15.0625 17.125 15.0625 17.1875 15ZM16.25 14.0625L14 14.375L13.125 13.5L14.375 9.875L16.3125 8.9375L17.5625 9.6875C17.5625 9.8125 17.5625 9.9375 17.5625 10.125C17.5 11.5 17.0625 12.9375 16.25 14.0625ZM16.1875 5.8125L15.6875 7.6875L13.6875 8.6875L10.625 6.5625V4.125L12.75 3.0625C14.1875 3.625 15.375 4.5625 16.1875 5.8125ZM7.1875 3.0625L9.375 4.125V6.5625L6.3125 8.75L4.25 7.75L3.75 5.8125C4.625 4.5625 5.8125 3.625 7.1875 3.0625ZM2.5 9.5625L3.75 8.8125L5.6875 9.8125L6.9375 13.4375L6.0625 14.3125L3.75 14.0625C2.9375 12.875 2.5 11.5 2.5 10C2.5 9.875 2.5 9.6875 2.5 9.5625ZM8.0625 17.25L7 15.125L7.75 14.375H12.25L13 15.125L11.9375 17.25C11.3125 17.4375 10.6875 17.5 10 17.5C9.3125 17.5 8.6875 17.375 8.0625 17.25Z" fill="black"/>
</svg>
