<svg width="48" height="48" viewBox="0 0 48 48" fill="none" xmlns="http://www.w3.org/2000/svg">
<path d="M24 19C23.0111 19 22.0444 19.2932 21.2222 19.8427C20.3999 20.3921 19.759 21.173 19.3806 22.0866C19.0022 23.0002 18.9031 24.0055 19.0961 24.9755C19.289 25.9454 19.7652 26.8363 20.4645 27.5355C21.1637 28.2348 22.0546 28.711 23.0246 28.9039C23.9945 29.0969 24.9998 28.9978 25.9134 28.6194C26.8271 28.241 27.6079 27.6001 28.1574 26.7779C28.7068 25.9556 29 24.9889 29 24C28.9984 22.6744 28.4711 21.4036 27.5338 20.4662C26.5964 19.5289 25.3256 19.0016 24 19V19ZM24 27C23.4067 27 22.8266 26.8241 22.3333 26.4944C21.8399 26.1648 21.4554 25.6962 21.2284 25.1481C21.0013 24.5999 20.9419 23.9967 21.0576 23.4147C21.1734 22.8328 21.4591 22.2982 21.8787 21.8787C22.2982 21.4591 22.8328 21.1734 23.4147 21.0576C23.9967 20.9419 24.5999 21.0013 25.1481 21.2284C25.6962 21.4554 26.1648 21.8399 26.4944 22.3333C26.8241 22.8266 27 23.4067 27 24C27 24.7956 26.6839 25.5587 26.1213 26.1213C25.5587 26.6839 24.7957 27 24 27Z" fill="#ffffff" id="id_101"></path>
<path d="M41.7 22.191C44.54 18.396 45.325 14.956 43.911 12.506C42.195 9.534 37.564 8.776 31.784 10.042C29.963 5.108 27.178 2 24 2C20.76 2 17.932 5.239 16.116 10.344C10.787 9.364 6.568 10.194 4.947 13C3.292 15.867 4.784 20.051 8.466 24.266C5.419 28.127 4.283 31.873 5.8 34.506C6.964 36.522 9.453 37.583 12.921 37.583C13.7142 37.5804 14.5066 37.5309 15.294 37.435C15.525 37.407 15.766 37.361 16.001 37.326C17.814 42.619 20.691 46 24 46C27.24 46 30.068 42.762 31.884 37.658C33.2026 37.9113 34.5414 38.0451 35.884 38.058C39.284 38.058 41.866 37.058 43.055 34.997C44.643 32.245 43.345 28.279 39.98 24.236C40.6 23.56 41.186 22.877 41.7 22.191ZM42.178 13.506C43.153 15.195 42.396 17.924 40.099 20.994C39.661 21.579 39.163 22.163 38.639 22.744C37.1099 21.1635 35.45 19.715 33.677 18.414C33.4351 16.2221 33.0079 14.0547 32.4 11.935C37.358 10.878 41.028 11.516 42.176 13.506H42.178ZM28.856 30.434C27.2404 31.3658 25.5708 32.2007 23.856 32.934C22.599 32.351 21.309 31.684 19.998 30.927C18.637 30.141 17.376 29.327 16.206 28.498C16.075 27.071 16 25.572 16 24C16 22.483 16.068 21.031 16.192 19.649C17.6851 18.5348 19.2425 17.5094 20.856 16.578C21.891 15.978 22.908 15.453 23.911 14.964C25.242 15.572 26.611 16.264 28 17.072C29.361 17.858 30.622 18.672 31.792 19.501C31.925 20.929 32 22.428 32 24.001C32 25.608 31.92 27.138 31.781 28.594C30.843 29.229 29.871 29.848 28.856 30.434ZM31.448 31.202C31.231 32.6001 30.9304 33.9839 30.548 35.346C29.1281 34.9846 27.732 34.5351 26.368 34C27.534 33.445 28.7 32.837 29.856 32.17C30.4 31.853 30.925 31.53 31.448 31.2V31.202ZM21.322 33.922C20.0293 34.3784 18.7094 34.7538 17.37 35.046C17.0207 33.7589 16.7443 32.4532 16.542 31.135C17.335 31.656 18.142 32.168 19 32.661C19.776 33.1077 20.55 33.528 21.322 33.922V33.922ZM14.092 26.891C13.0469 26.0529 12.05 25.1565 11.106 24.206C12.0343 23.1837 13.0266 22.2214 14.077 21.325C14.031 22.2 14 23.091 14 24C14 24.985 14.038 25.944 14.092 26.891V26.891ZM16.528 16.955C16.7459 15.504 17.0535 14.0679 17.449 12.655C18.8205 13.0068 20.1697 13.4409 21.489 13.955C20.946 14.243 20.401 14.535 19.856 14.855C18.687 15.52 17.583 16.229 16.528 16.955V16.955ZM26.275 13.887C27.6482 13.3117 29.0543 12.8185 30.486 12.41C30.9058 13.8725 31.2305 15.3606 31.458 16.865C30.665 16.344 29.858 15.832 29 15.339C28.088 14.813 27.18 14.338 26.275 13.887V13.887ZM33.908 21.109C35.0923 22.0542 36.2143 23.075 37.267 24.165C36.2032 25.2019 35.0789 26.175 33.9 27.079C33.962 26.072 34 25.05 34 24C34 23.015 33.962 22.056 33.908 21.109V21.109ZM24 4C26.109 4 28.294 6.408 29.848 10.528C27.7968 11.1183 25.7944 11.8669 23.859 12.767C21.9808 11.9514 20.0415 11.2843 18.059 10.772C19.615 6.5 21.849 4 24 4ZM6.68 14C7.755 12.137 11.035 11.451 15.516 12.238C14.9411 14.3122 14.5367 16.4299 14.307 18.57C12.6758 19.8337 11.1529 21.2312 9.754 22.748C6.694 19.177 5.582 15.9 6.68 14ZM15.06 35.449C11.252 35.904 8.51 35.194 7.536 33.506C6.536 31.778 7.374 28.914 9.829 25.726C11.2306 27.1231 12.7348 28.4134 14.329 29.586C14.5478 31.5464 14.9121 33.4877 15.419 35.394C15.3 35.41 15.176 35.435 15.06 35.449ZM24 44C21.8 44 19.523 41.4 17.96 36.962C19.967 36.5067 21.933 35.8866 23.838 35.108C25.8098 35.9823 27.8499 36.6934 29.938 37.234C28.383 41.505 26.15 44 24 44ZM41.32 34C40.245 35.863 36.965 36.549 32.484 35.763C33.0329 33.7859 33.4255 31.7687 33.658 29.73C35.4033 28.5043 37.0518 27.1463 38.589 25.668C41.382 29.076 42.375 32.173 41.32 34Z" fill="#ffffff" id="id_102"></path>
</svg>