<!DOCTYPE svg PUBLIC "-//W3C//DTD SVG 1.1//EN" "http://www.w3.org/Graphics/SVG/1.1/DTD/svg11.dtd">

<!-- search: podium 
    Uploaded to: SVG Repo, www.svgrepo.com, Transformed by: SVG Repo Mixer Tools 
-->
<svg fill="#ffffff" version="1.1" id="Layer_1" xmlns="http://www.w3.org/2000/svg" xmlns:xlink="http://www.w3.org/1999/xlink" width="800px" height="800px" viewBox="0 0 154 256" enable-background="new 0 0 154 256" xml:space="preserve" stroke="#ffffff">

<g id="SVGRepo_bgCarrier" stroke-width="0"/>

<g id="SVGRepo_tracerCarrier" stroke-linecap="round" stroke-linejoin="round"/>

<g id="SVGRepo_iconCarrier"> <path d="M77.012,2c12.112,0,21.931,9.819,21.931,21.931s-9.819,21.931-21.931,21.931S55.08,36.044,55.08,23.931S64.899,2,77.012,2z M41.037,84.229c0-1.672,1.082-2.802,2.823-2.785c1.527,0.015,2.748,1.289,2.748,2.816v12.206h60.748V84.229 c0-1.66,1.067-2.785,2.785-2.785c1.66,0,2.785,1.067,2.785,2.785v12.236h19.321V78.658c0-15.231-12.445-27.618-27.618-27.618h-5.571 L82.412,76.332l-2.46-19.886l2.46-5.476l-10.823,0.01l2.46,5.466l-2.46,19.886L55.913,51.039h-6.519 c-15.231,0-27.618,12.445-27.618,27.618v17.808h19.3L41.037,84.229z M10.094,56.507l6.803-6.803c0.503,0.111,1.02,0.173,1.548,0.173 c1.912,0,3.708-0.744,5.06-2.096l5.962-5.961c2.789-2.79,2.789-7.33,0-10.12c-1.351-1.352-3.148-2.096-5.06-2.096 c-1.911,0-3.708,0.744-5.06,2.096l-5.962,5.962c-1.734,1.734-2.389,4.144-1.967,6.39l-9.195,9.196v70.758h19.678L33.141,254h87.741 l11.217-129.995h19.678v-21.636H10.094V56.507z"/> </g>

</svg>