<?xml version="1.0" encoding="iso-8859-1"?>
<!-- Uploaded to: SVG Repo, www.svgrepo.com, Generator: SVG Repo Mixer Tools -->
<!DOCTYPE svg PUBLIC "-//W3C//DTD SVG 1.1//EN" "http://www.w3.org/Graphics/SVG/1.1/DTD/svg11.dtd">
<svg fill="#000000" height="800px" width="800px" version="1.1" id="Capa_1" xmlns="http://www.w3.org/2000/svg" xmlns:xlink="http://www.w3.org/1999/xlink" 
	 viewBox="0 0 294.516 294.516" xml:space="preserve">
<g>
	<path d="M71.774,124.77c1.556,0.907,3.295,1.36,5.035,1.36c1.74,0,3.479-0.453,5.036-1.36c5.959-3.474,58.219-34.893,58.219-68.077
		c0-20.295-16.433-36.807-36.631-36.807c-10.479,0-19.942,4.445-26.625,11.558c-6.683-7.112-16.147-11.558-26.627-11.558
		c-20.199,0-36.633,16.512-36.633,36.807C13.548,89.877,65.814,121.296,71.774,124.77z M50.181,39.886
		c9.169,0,16.628,7.539,16.628,16.807c0,5.522,4.478,10,10,10s10-4.478,10-10c0-9.268,7.457-16.807,16.624-16.807
		c9.17,0,16.631,7.539,16.631,16.807c0,15.033-24.742,35.905-43.255,47.717C58.293,92.599,33.548,71.727,33.548,56.693
		C33.548,47.425,41.01,39.886,50.181,39.886z"/>
	<path d="M291.587,175.059l-38.895-38.893c-7.717-7.717-21.766-13.535-32.677-13.535h-102c-13.785,0-25,11.215-25,25v3
		c0,13.785,11.215,25,25,25h26.857l-5.322,5.322c-3.634,3.636-11.878,6.381-16.971,5.657l-85.801-12.258
		c-11.289-1.612-24.865,2.239-31.584,8.957c-4.174,4.174-5.958,9.734-4.894,15.254c1.248,6.479,6.191,12.009,13.564,15.168
		l87.925,37.682c9.627,4.126,24.547,5.32,34.704,2.781l36.896-9.225c8.631-2.158,21.762-6.676,29.894-10.286l9.745-4.326
		c3.601-1.599,9.747-0.315,12.408,2.589l35.204,38.438c1.973,2.154,4.671,3.246,7.378,3.246c2.412,0,4.832-0.868,6.751-2.625
		c4.073-3.73,4.351-10.057,0.621-14.129l-35.205-38.439c-8.402-9.176-23.896-12.409-35.272-7.36l-9.745,4.326
		c-7.002,3.108-19.197,7.305-26.63,9.163l-36.896,9.225c-5.906,1.477-16.378,0.637-21.974-1.762l-87.202-37.372
		c3.061-1.206,7.56-2.067,11.486-1.507l85.801,12.258c11.29,1.619,25.879-3.252,33.94-11.314l11.787-11.787
		c8.213-8.213,6.409-15.596,5.252-18.389c-1.157-2.793-5.102-9.289-16.717-9.289h-36c-2.71,0-5-2.29-5-5v-3c0-2.71,2.29-5,5-5h102
		c5.58,0,14.589,3.731,18.535,7.678l38.894,38.894c3.906,3.904,10.236,3.904,14.143,0
		C295.492,185.296,295.492,178.964,291.587,175.059z"/>
</g>
</svg>