<?xml version="1.0" encoding="UTF-8"?>
<!DOCTYPE svg PUBLIC "-//W3C//DTD SVG 1.1//EN" "http://www.w3.org/Graphics/SVG/1.1/DTD/svg11.dtd">
<!-- Creator: CorelDRAW -->
<svg xmlns="http://www.w3.org/2000/svg" xml:space="preserve" width="7.11111in" height="7.11111in" version="1.1" style="shape-rendering:geometricPrecision; text-rendering:geometricPrecision; image-rendering:optimizeQuality; fill-rule:evenodd; clip-rule:evenodd"
viewBox="0 0 7111 7111"
 xmlns:xlink="http://www.w3.org/1999/xlink">
 <defs>
  <style type="text/css">
   <![CDATA[
    .fil0 {fill:#333333}
    .fil3 {fill:#58535A}
    .fil1 {fill:#CCCCCC}
    .fil2 {fill:#FF3131}
    .fil4 {fill:#FF700D}
   ]]>
  </style>
 </defs>
 <g id="Layer_x0020_1">
  <metadata id="CorelCorpID_0Corel-Layer"/>
  <path class="fil0" d="M3823 2553l-147 0 0 1119 228 0c31,-492 255,-654 454,-799 210,-152 391,-284 391,-840 0,-659 -535,-1194 -1193,-1194 -659,0 -1194,535 -1194,1194 0,556 181,688 391,840 199,145 423,307 454,799l228 0 0 -1119 -147 0c-66,0 -120,-54 -120,-121 0,-66 54,-120 120,-120l535 0c66,0 120,54 120,120 0,67 -54,121 -120,121zm-844 4557c-42,0 -82,-23 -104,-60l-1707 -2956c-32,-57 -220,-376 -232,-404l-357 -847c-341,-26 -531,-307 -568,-700 -43,-450 125,-1087 443,-1322 70,-54 167,-21 192,61 9,29 148,457 432,604 540,279 563,625 440,861l530 701c18,23 203,349 234,403 5,8 8,16 11,25l908 2872c6,19 7,38 4,57l-107 605c-10,57 -61,100 -119,100zm-1662 -3242l696 -401 -105 -181 -696 401 105 181zm121 210l1480 2563 44 -248 -854 -2702 -670 387zm-737 -1478c222,-21 573,-202 630,-435 49,-203 -171,-365 -364,-465 -134,-69 -241,-178 -323,-292 20,220 79,463 229,607 80,76 22,208 -83,208 -30,0 -60,-11 -84,-34 -236,-226 -300,-605 -311,-894 -108,234 -170,553 -144,825 13,135 60,373 234,455 68,32 144,30 216,25zm131 223l273 647 668 -385 -408 -540c-141,132 -336,235 -533,278zm3300 4287c-58,0 -109,-43 -119,-100l-106 -605c-4,-19 -2,-38 3,-57l908 -2872 12 -27c34,-58 214,-376 233,-401l530 -701c-123,-236 -100,-582 440,-861 244,-126 395,-480 433,-606 25,-84 125,-110 191,-59 318,235 486,872 443,1322 -37,393 -227,674 -567,700l-358 847 -7 13 -1932 3347c-21,37 -62,60 -104,60zm967 -3643l695 401 105 -181 -696 -401 -104 181zm-949 2926l43 248 1480 -2563 -670 -387 -853 2702zm1688 -4109c128,183 416,320 638,320 59,0 110,-10 150,-29 174,-82 221,-320 234,-455 26,-272 -36,-591 -144,-825 -11,289 -75,668 -311,894 -48,46 -125,45 -171,-3 -46,-48 -44,-125 4,-171 150,-144 209,-387 229,-607 -82,114 -189,223 -323,292 -193,100 -413,262 -363,465 10,45 30,82 57,119zm-500 801l668 385 273 -647c-196,-43 -392,-145 -533,-278l-408 540zm-1782 -2599c-67,0 -121,-54 -121,-120l0 -244c0,-67 54,-121 121,-121 66,0 120,54 120,121l0 244c0,66 -54,120 -120,120zm944 254c-90,0 -151,-100 -104,-182l122 -211c33,-57 107,-77 165,-44 58,34 77,107 44,165l-122 211c-22,39 -63,61 -105,61zm-1889 0c-42,0 -83,-22 -105,-61l-122 -211c-33,-58 -13,-131 44,-165 58,-33 132,-13 165,44l122 211c47,82 -14,182 -104,182zm1531 3456c0,67 -54,121 -121,121l-931 0c-67,0 -121,-54 -121,-121l0 -403c0,-465 -158,-579 -357,-724 -231,-168 -492,-357 -492,-1036 0,-792 644,-1436 1436,-1436 791,0 1435,644 1435,1436 0,679 -261,868 -491,1036 -200,145 -358,259 -358,724l0 403zm-931 -121l689 0 0 -161 -689 0 0 161zm823 664l-956 0c-67,0 -121,-54 -121,-121 0,-66 54,-120 121,-120l956 0c66,0 120,54 120,120 0,67 -54,121 -120,121zm-211 418l-535 0c-66,0 -120,-54 -120,-120 0,-67 54,-121 120,-121l535 0c66,0 120,54 120,121 0,66 -54,120 -120,120z"/>
  <polygon class="fil1" points="2962,6393 2108,3691 1438,4078 2918,6641 "/>
  <polygon class="fil2" points="1317,3868 2013,3467 1908,3286 1212,3687 "/>
  <path class="fil1" d="M1105 3470l668 -385 -408 -540c-141,132 -336,235 -533,278l273 647z"/>
  <path class="fil3" d="M701 2600c222,-21 573,-202 630,-435 49,-203 -171,-365 -364,-465 -134,-69 -241,-178 -323,-292 20,220 79,463 229,607 80,76 22,208 -83,208 -30,0 -60,-11 -84,-34 -236,-226 -300,-605 -311,-894 -108,234 -170,553 -144,825 13,135 60,373 234,455 68,32 144,30 216,25z"/>
  <path class="fil4" d="M2362 2033c0,556 181,688 391,840 199,145 423,307 454,799l228 0 0 -1119 -147 0c-66,0 -120,-54 -120,-121 0,-66 54,-120 120,-120l535 0c66,0 120,54 120,120 0,67 -54,121 -120,121l-147 0 0 1119 228 0c31,-492 255,-654 454,-799 210,-152 391,-284 391,-840 0,-659 -535,-1194 -1193,-1194 -659,0 -1194,535 -1194,1194z"/>
  <polygon class="fil1" points="3900,3914 3211,3914 3211,4075 3900,4075 "/>
  <polygon class="fil1" points="5003,3691 4150,6393 4193,6641 5673,4078 "/>
  <polygon class="fil2" points="5099,3467 5794,3868 5899,3687 5203,3286 "/>
  <path class="fil1" d="M5338 3085l668 385 273 -647c-196,-43 -392,-145 -533,-278l-408 540z"/>
  <path class="fil3" d="M5838 2284c128,183 416,320 638,320 59,0 110,-10 150,-29 174,-82 221,-320 234,-455 26,-272 -36,-591 -144,-825 -11,289 -75,668 -311,894 -48,46 -125,45 -171,-3 -46,-48 -44,-125 4,-171 150,-144 209,-387 229,-607 -82,114 -189,223 -323,292 -193,100 -413,262 -363,465 10,45 30,82 57,119z"/>
 </g>
</svg>
