<svg width="20" height="20" viewBox="0 0 20 20" fill="none" xmlns="http://www.w3.org/2000/svg">
<path d="M16.25 16.875H3.75C3.0625 16.875 2.5 16.3125 2.5 15.625V7.5C2.5 6.8125 3.0625 6.25 3.75 6.25H16.25C16.9375 6.25 17.5 6.8125 17.5 7.5V15.625C17.5 16.3125 16.9375 16.875 16.25 16.875Z" stroke="black" stroke-width="2" stroke-miterlimit="10" stroke-linecap="round" stroke-linejoin="round"/>
<path d="M14.125 11.25H5.875C4 11.25 2.5 9.75 2.5 7.875V7.5C2.5 6.8125 3.0625 6.25 3.75 6.25H16.25C16.9375 6.25 17.5 6.8125 17.5 7.5V7.875C17.5 9.75 16 11.25 14.125 11.25Z" stroke="black" stroke-width="2" stroke-miterlimit="10" stroke-linecap="round" stroke-linejoin="round"/>
<path d="M6.25 12.5V11.25" stroke="black" stroke-width="2" stroke-miterlimit="10" stroke-linecap="round" stroke-linejoin="round"/>
<path d="M13.75 12.5V11.25" stroke="black" stroke-width="2" stroke-miterlimit="10" stroke-linecap="round" stroke-linejoin="round"/>
<path d="M5.8125 6.25C6.375 4.4375 8 3.125 10 3.125C12 3.125 13.625 4.4375 14.1875 6.25" stroke="black" stroke-width="2" stroke-miterlimit="10" stroke-linecap="round" stroke-linejoin="round"/>
</svg>
