<svg width="22" height="25" viewBox="0 0 22 25" fill="none" xmlns="http://www.w3.org/2000/svg">
<g clip-path="url(#clip0_2066_3005)">
<path d="M4.6875 1.5625V3.125H2.34375C1.0498 3.125 0 4.1748 0 5.46875V7.8125H21.875V5.46875C21.875 4.1748 20.8252 3.125 19.5312 3.125H17.1875V1.5625C17.1875 0.698242 16.4893 0 15.625 0C14.7607 0 14.0625 0.698242 14.0625 1.5625V3.125H7.8125V1.5625C7.8125 0.698242 7.11426 0 6.25 0C5.38574 0 4.6875 0.698242 4.6875 1.5625ZM21.875 9.375H0V22.6562C0 23.9502 1.0498 25 2.34375 25H19.5312C20.8252 25 21.875 23.9502 21.875 22.6562V9.375Z" fill="white"/>
</g>
<defs>
<clipPath id="clip0_2066_3005">
<rect width="21.875" height="25" fill="white"/>
</clipPath>
</defs>
</svg>
