<svg width="29" height="25" viewBox="0 0 29 25" fill="none" xmlns="http://www.w3.org/2000/svg">
<path d="M12.915 0.254639C13.6426 -0.0822754 14.4824 -0.0822754 15.21 0.254639L25.8838 5.18628C26.2988 5.37671 26.5625 5.79175 26.5625 6.25073C26.5625 6.70972 26.2988 7.12476 25.8838 7.31519L15.21 12.2468C14.4824 12.5837 13.6426 12.5837 12.915 12.2468L2.24121 7.31519C1.82617 7.11987 1.5625 6.70483 1.5625 6.25073C1.5625 5.79663 1.82617 5.37671 2.24121 5.18628L12.915 0.254639ZM23.2861 10.2351L25.8838 11.4363C26.2988 11.6267 26.5625 12.0417 26.5625 12.5007C26.5625 12.9597 26.2988 13.3748 25.8838 13.5652L15.21 18.4968C14.4824 18.8337 13.6426 18.8337 12.915 18.4968L2.24121 13.5652C1.82617 13.3699 1.5625 12.9548 1.5625 12.5007C1.5625 12.0466 1.82617 11.6267 2.24121 11.4363L4.83887 10.2351L12.2607 13.6628C13.4033 14.1902 14.7217 14.1902 15.8643 13.6628L23.2861 10.2351ZM15.8643 19.9128L23.2861 16.4851L25.8838 17.6863C26.2988 17.8767 26.5625 18.2917 26.5625 18.7507C26.5625 19.2097 26.2988 19.6248 25.8838 19.8152L15.21 24.7468C14.4824 25.0837 13.6426 25.0837 12.915 24.7468L2.24121 19.8152C1.82617 19.6199 1.5625 19.2048 1.5625 18.7507C1.5625 18.2966 1.82617 17.8767 2.24121 17.6863L4.83887 16.4851L12.2607 19.9128C13.4033 20.4402 14.7217 20.4402 15.8643 19.9128Z" fill="white"/>
</svg>
