<svg width="32" height="25" viewBox="0 0 32 25" fill="none" xmlns="http://www.w3.org/2000/svg">
<g clip-path="url(#clip0_2066_3009)">
<path d="M17.2754 2.6415L16.123 0.307519C15.9326 -0.0977539 15.3369 -0.112402 15.127 0.307519L13.9746 2.6415L11.4209 3.00771C10.9668 3.07607 10.7715 3.6376 11.1084 3.97451L12.9639 5.78115L12.5244 8.3251C12.4561 8.7792 12.9248 9.13076 13.3447 8.9208L15.6348 7.70986L17.9102 8.90127C18.3301 9.11123 18.8037 8.75967 18.7305 8.30557L18.291 5.76162L20.1465 3.97451C20.4785 3.64248 20.2881 3.08096 19.834 3.00771L17.2803 2.6415H17.2754ZM12.5 12.4999C11.6357 12.4999 10.9375 13.1981 10.9375 14.0624V23.4374C10.9375 24.3017 11.6357 24.9999 12.5 24.9999H18.75C19.6143 24.9999 20.3125 24.3017 20.3125 23.4374V14.0624C20.3125 13.1981 19.6143 12.4999 18.75 12.4999H12.5ZM1.5625 15.6249C0.698242 15.6249 0 16.3231 0 17.1874V23.4374C0 24.3017 0.698242 24.9999 1.5625 24.9999H7.8125C8.67676 24.9999 9.375 24.3017 9.375 23.4374V17.1874C9.375 16.3231 8.67676 15.6249 7.8125 15.6249H1.5625ZM21.875 20.3124V23.4374C21.875 24.3017 22.5732 24.9999 23.4375 24.9999H29.6875C30.5518 24.9999 31.25 24.3017 31.25 23.4374V20.3124C31.25 19.4481 30.5518 18.7499 29.6875 18.7499H23.4375C22.5732 18.7499 21.875 19.4481 21.875 20.3124Z" fill="white"/>
</g>
<defs>
<clipPath id="clip0_2066_3009">
<rect width="31.25" height="25" fill="white"/>
</clipPath>
</defs>
</svg>
