<svg width="25" height="25" viewBox="0 0 25 25" fill="none" xmlns="http://www.w3.org/2000/svg">
<g clip-path="url(#clip0_2066_3022)">
<path d="M3.83781 0.244728C3.37394 -0.116601 2.71476 -0.0726552 2.29484 0.342384L0.341716 2.29551C-0.0733233 2.71055 -0.117269 3.36973 0.239177 3.83848L4.14543 8.9166C4.36515 9.20469 4.71183 9.37559 5.07316 9.37559H7.71476L13.037 14.6979C12.3193 16.1139 12.5487 17.8912 13.7353 19.0729L19.204 24.5416C19.8144 25.152 20.8056 25.152 21.4159 24.5416L24.5409 21.4166C25.1513 20.8063 25.1513 19.815 24.5409 19.2047L19.0722 13.7359C17.8905 12.5543 16.1132 12.3199 14.6972 13.0377L9.37492 7.71543V5.07871C9.37492 4.7125 9.20402 4.3707 8.91593 4.15098L3.83781 0.244728ZM0.971599 19.3414C0.351481 19.9615 -8.11563e-05 20.8063 -8.11563e-05 21.6852C-8.11563e-05 23.5162 1.48429 25.0006 3.31535 25.0006C4.19425 25.0006 5.03898 24.649 5.6591 24.0289L11.4111 18.277C11.0302 17.2564 10.9716 16.148 11.2353 15.0982L8.22257 12.0855L0.971599 19.3414ZM24.9999 7.03184C24.9999 6.51914 24.9462 6.02109 24.8437 5.54258C24.7265 4.9957 24.0575 4.8541 23.662 5.24961L20.5419 8.36973C20.3954 8.51621 20.1952 8.59922 19.9902 8.59922H17.1874C16.7577 8.59922 16.4062 8.24766 16.4062 7.81797V5.01035C16.4062 4.80527 16.4892 4.60508 16.6357 4.4586L19.7558 1.33848C20.1513 0.94297 20.0097 0.274024 19.4628 0.156837C18.9794 0.0542979 18.4814 0.00058697 17.9687 0.00058697C14.0868 0.00058697 10.9374 3.15 10.9374 7.03184V7.0709L15.1025 11.2359C16.8603 10.7916 18.8036 11.2604 20.1806 12.6373L20.9472 13.4039C23.3398 12.2809 24.9999 9.84922 24.9999 7.03184ZM2.73429 21.0943C2.73429 20.7835 2.85776 20.4855 3.07753 20.2657C3.2973 20.0459 3.59537 19.9225 3.90617 19.9225C4.21697 19.9225 4.51504 20.0459 4.73481 20.2657C4.95458 20.4855 5.07804 20.7835 5.07804 21.0943C5.07804 21.4051 4.95458 21.7032 4.73481 21.923C4.51504 22.1427 4.21697 22.2662 3.90617 22.2662C3.59537 22.2662 3.2973 22.1427 3.07753 21.923C2.85776 21.7032 2.73429 21.4051 2.73429 21.0943Z" fill="white"/>
</g>
<defs>
<clipPath id="clip0_2066_3022">
<rect width="25" height="25" fill="white"/>
</clipPath>
</defs>
</svg>
