<svg width="22" height="25" viewBox="0 0 22 25" fill="none" xmlns="http://www.w3.org/2000/svg">
<g clip-path="url(#clip0_2066_3020)">
<path d="M10.9375 14.5C12.5951 14.5 14.1848 13.8415 15.3569 12.6694C16.529 11.4973 17.1875 9.9076 17.1875 8.25C17.1875 6.5924 16.529 5.00269 15.3569 3.83058C14.1848 2.65848 12.5951 2 10.9375 2C9.2799 2 7.69018 2.65848 6.51808 3.83058C5.34598 5.00269 4.6875 6.5924 4.6875 8.25C4.6875 9.9076 5.34598 11.4973 6.51808 12.6694C7.69018 13.8415 9.2799 14.5 10.9375 14.5ZM8.70605 16.8438C3.89648 16.8438 0 20.7402 0 25.5498C0 26.3506 0.649414 27 1.4502 27H20.4248C21.2256 27 21.875 26.3506 21.875 25.5498C21.875 20.7402 17.9785 16.8438 13.1689 16.8438H8.70605Z" fill="white"/>
</g>
<defs>
<clipPath id="clip0_2066_3020">
<rect width="21.875" height="25" fill="white"/>
</clipPath>
</defs>
</svg>
