<svg width="25" height="25" viewBox="0 0 25 25" fill="none" xmlns="http://www.w3.org/2000/svg">
<path d="M25 13.0859C25 13.96 24.79 14.7705 24.3701 15.5127C23.9502 16.2549 23.3887 16.8359 22.6807 17.2412C22.7002 17.373 22.71 17.5781 22.71 17.8564C22.71 19.1797 22.2656 20.3027 21.3867 21.2305C20.5029 22.1631 19.4385 22.627 18.1934 22.627C17.6367 22.627 17.1045 22.5244 16.6016 22.3193C16.2109 23.1201 15.6494 23.7646 14.9121 24.2578C14.1797 24.7559 13.374 25 12.5 25C11.6064 25 10.7959 24.7607 10.0732 24.2725C9.3457 23.7891 8.78906 23.1396 8.39844 22.3193C7.89551 22.5244 7.36816 22.627 6.80664 22.627C5.56152 22.627 4.49219 22.1631 3.59863 21.2305C2.70508 20.3027 2.26074 19.1748 2.26074 17.8564C2.26074 17.71 2.28027 17.5049 2.31445 17.2412C1.60645 16.8311 1.04492 16.2549 0.625 15.5127C0.209961 14.7705 0 13.96 0 13.0859C0 12.1582 0.234375 11.3037 0.698242 10.5322C1.16211 9.76074 1.78711 9.18945 2.56836 8.81836C2.36328 8.26172 2.26074 7.7002 2.26074 7.14355C2.26074 5.8252 2.70508 4.69727 3.59863 3.76953C4.49219 2.8418 5.56152 2.37305 6.80664 2.37305C7.36328 2.37305 7.89551 2.47559 8.39844 2.68066C8.78906 1.87988 9.35059 1.23535 10.0879 0.742188C10.8203 0.249023 11.626 0 12.5 0C13.374 0 14.1797 0.249023 14.9121 0.737305C15.6445 1.23047 16.2109 1.875 16.6016 2.67578C17.1045 2.4707 17.6318 2.36816 18.1934 2.36816C19.4385 2.36816 20.5029 2.83203 21.3867 3.76465C22.2705 4.69727 22.71 5.82031 22.71 7.13867C22.71 7.75391 22.6172 8.31055 22.4316 8.81348C23.2129 9.18457 23.8379 9.75586 24.3018 10.5273C24.7656 11.3037 25 12.1582 25 13.0859ZM11.9678 16.8506L17.1289 9.12109C17.2607 8.91602 17.2998 8.69141 17.2559 8.45215C17.207 8.21289 17.085 8.02246 16.8799 7.89551C16.6748 7.76367 16.4502 7.71973 16.2109 7.75391C15.9668 7.79297 15.7715 7.91016 15.625 8.11523L11.0791 14.9512L8.98438 12.8613C8.79883 12.6758 8.58398 12.5879 8.34473 12.5977C8.10059 12.6074 7.89062 12.6953 7.70508 12.8613C7.53906 13.0273 7.45605 13.2373 7.45605 13.4912C7.45605 13.7402 7.53906 13.9502 7.70508 14.1211L10.5811 16.9971L10.7227 17.1094C10.8887 17.2217 11.0596 17.2754 11.2256 17.2754C11.5527 17.2705 11.8018 17.1338 11.9678 16.8506Z" fill="white"/>
</svg>
